<?xml version="1.0" standalone="no"?>
<svg version="1.0" xmlns="http://www.w3.org/2000/svg" viewBox="0 0 114 54"
 preserveAspectRatio="xMidYMid meet">
<title>Symbol of pointing hand.</title>
<g transform="translate(-7.680000,61.826494) rotate(-360.00) scale(0.022857,-0.022857)"
fill="#000000" stroke="none">
<path d="M2735 2694 c-678 -53 -1318 -200 -1820 -420 -60 -26 -114 -48 -119
-48 -6 0 -37 22 -69 48 -33 27 -127 93 -209 148 -83 55 -153 104 -156 109 -4
6 -11 10 -16 10 -6 0 -10 -377 -10 -987 0 -561 4 -987 9 -987 5 0 35 12 66 26
31 14 104 37 161 52 317 80 437 61 776 -124 201 -109 341 -139 712 -150 165
-5 271 -3 348 6 108 13 111 13 192 -15 66 -22 110 -29 214 -34 253 -11 381 25
501 142 68 66 105 134 122 225 11 57 14 60 61 83 63 29 128 93 157 154 27 55
37 165 22 232 -10 41 -8 48 18 78 78 92 99 166 94 332 -3 108 -7 128 -33 182
-17 33 -54 87 -84 119 l-53 59 46 -6 c221 -31 774 -46 1025 -29 475 33 625
106 641 312 13 152 -72 254 -254 308 -152 45 -711 128 -1108 165 -249 23 -989
29 -1234 10z m993 -153 c488 -30 1209 -132 1346 -191 57 -25 103 -72 103 -107
0 -48 -22 -87 -61 -109 -185 -103 -1084 -112 -1797 -18 -169 22 -154 27 -167
-60 -6 -42 -11 -77 -9 -77 1 -1 47 -17 102 -36 180 -61 309 -159 359 -271 27
-62 35 -163 19 -233 -18 -75 -106 -173 -147 -163 -41 10 -53 25 -53 68 0 92
-92 307 -186 431 -60 81 -194 205 -299 279 -221 156 -528 269 -844 313 l-44 6
-10 -76 c-12 -86 -9 -92 50 -92 131 0 389 -72 556 -155 321 -159 599 -491 617
-739 5 -62 3 -71 -18 -85 -30 -21 -91 -13 -168 20 -90 40 -262 158 -338 234
-66 66 -168 208 -183 254 -6 20 -10 19 -50 -20 -143 -135 -346 -239 -584 -300
-78 -19 -119 -22 -305 -22 -165 0 -231 4 -283 17 -38 10 -72 14 -75 10 -14
-15 -42 -141 -34 -149 15 -13 119 -32 228 -41 127 -11 416 3 516 25 158 34
319 102 457 195 l78 52 20 -29 c11 -15 66 -73 121 -128 163 -162 366 -273 514
-282 89 -5 145 9 189 46 27 23 35 25 57 15 18 -9 40 -9 75 -2 l48 10 0 -41 c0
-92 -60 -160 -172 -194 -88 -26 -372 -27 -493 -1 -234 51 -401 166 -491 338
-19 35 -35 65 -36 67 -6 7 -131 -62 -131 -72 0 -17 51 -113 82 -156 137 -188
276 -280 501 -331 88 -20 320 -40 418 -36 l82 4 -7 -26 c-9 -40 -52 -101 -91
-130 -66 -50 -128 -64 -271 -64 -185 1 -283 31 -445 135 -119 76 -221 194
-250 291 -6 22 -16 41 -21 41 -5 0 -37 -15 -72 -32 l-62 -32 21 -55 c37 -92
84 -166 148 -230 34 -33 56 -61 48 -62 -7 0 -65 -4 -128 -9 -141 -11 -357 3
-473 30 -127 31 -211 66 -329 137 -271 165 -450 198 -705 129 -66 -18 -129
-36 -139 -40 -18 -6 -18 32 -18 726 0 696 0 731 18 717 101 -85 192 -157 221
-174 l35 -22 149 69 c522 239 1102 376 1813 427 228 17 767 20 998 6z"/>
</g>
</svg>
