<?xml version="1.0" encoding="utf-8"?>
<svg xmlns="http://www.w3.org/2000/svg" version="1" viewBox="0 0 114 54">
	<title>Symbol of pointing hand.</title>
	<path d="M54.834.25c-15.497 1.211-30.126 4.571-41.6 9.6-1.371.594-2.606 1.097-2.72 1.097-.137 0-.846-.503-1.577-1.097-.754-.617-2.903-2.126-4.777-3.383C2.263 5.21.663 4.09.594 3.975.503 3.838.343 3.747.23 3.747.09 3.747 0 12.364 0 26.307c0 12.822.091 22.56.206 22.56.114 0 .8-.275 1.508-.595.709-.32 2.377-.845 3.68-1.188 7.246-1.829 9.989-1.395 17.737 2.834 4.594 2.491 7.794 3.177 16.274 3.429 3.772.114 6.195.068 7.955-.138 2.468-.297 2.537-.297 4.388.343 1.509.503 2.514.663 4.892.777 5.782.252 8.708-.571 11.451-3.245 1.554-1.509 2.4-3.063 2.789-5.143.25-1.303.32-1.372 1.394-1.897 1.44-.663 2.925-2.126 3.588-3.52.617-1.257.846-3.772.503-5.303-.228-.937-.183-1.097.412-1.783 1.782-2.103 2.262-3.794 2.148-7.588-.068-2.469-.16-2.926-.754-4.16-.389-.755-1.234-1.989-1.92-2.72l-1.212-1.349 1.052.137c5.051.709 17.691 1.052 23.428.663 10.857-.754 14.286-2.423 14.652-7.131.297-3.475-1.646-5.806-5.806-7.04C104.891 3.22 92.114 1.324 83.039.478 77.348-.047 60.434-.185 54.834.25zM77.53 3.747c11.154.686 27.634 3.017 30.765 4.366 1.303.571 2.355 1.645 2.355 2.445 0 1.097-.503 1.989-1.395 2.492-4.228 2.354-24.777 2.56-41.074.411-3.862-.503-3.52-.617-3.817 1.372-.137.96-.251 1.76-.205 1.76.022.022 1.074.388 2.331.822 4.114 1.395 7.063 3.635 8.206 6.195.617 1.417.8 3.725.434 5.325-.412 1.715-2.423 3.955-3.36 3.726-.937-.229-1.211-.571-1.211-1.554 0-2.103-2.103-7.017-4.252-9.852-1.371-1.851-4.434-4.685-6.834-6.377-5.052-3.565-12.069-6.148-19.291-7.154l-1.006-.137-.229 1.737c-.274 1.966-.205 2.103 1.143 2.103 2.994 0 8.892 1.646 12.709 3.543 7.337 3.634 13.691 11.222 14.102 16.891.115 1.417.069 1.623-.411 1.943-.686.48-2.08.297-3.84-.457-2.057-.915-5.989-3.612-7.726-5.349-1.508-1.508-3.84-4.754-4.183-5.806-.137-.457-.228-.434-1.142.458-3.269 3.085-7.909 5.462-13.349 6.857-1.783.434-2.72.503-6.971.503-3.772 0-5.28-.092-6.469-.389-.868-.229-1.645-.32-1.714-.229-.32.343-.96 3.223-.777 3.406.343.297 2.72.732 5.211.937 2.903.252 9.509-.068 11.794-.571 3.612-.777 7.292-2.332 10.446-4.457l1.783-1.189.457.663c.251.343 1.509 1.669 2.766 2.926 3.725 3.703 8.365 6.24 11.748 6.445 2.035.115 3.315-.205 4.32-1.051.617-.526.8-.571 1.303-.343.412.206.914.206 1.714.046l1.097-.229v.937c0 2.103-1.37 3.657-3.93 4.435-2.012.594-8.504.617-11.27.022-5.348-1.165-9.165-3.794-11.222-7.725-.434-.8-.8-1.486-.823-1.532-.137-.16-2.994 1.418-2.994 1.646 0 .389 1.165 2.583 1.874 3.566 3.131 4.297 6.308 6.4 11.451 7.565 2.012.458 7.315.915 9.555.823l1.874-.091-.16.594c-.206.914-1.189 2.309-2.08 2.972-1.509 1.142-2.926 1.462-6.194 1.462-4.229-.022-6.469-.708-10.172-3.085-2.72-1.737-5.051-4.435-5.714-6.652-.137-.503-.366-.937-.48-.937-.114 0-.846.343-1.646.732l-1.417.731.48 1.257c.846 2.103 1.92 3.794 3.383 5.257.777.755 1.28 1.395 1.097 1.417-.16 0-1.486.092-2.926.206-3.222.252-8.16-.068-10.811-.686-2.903-.708-4.823-1.508-7.52-3.131-6.194-3.771-10.286-4.526-16.114-2.949-1.509.412-2.949.823-3.177.915-.412.137-.412-.732-.412-16.594 0-15.909 0-16.709.412-16.389 2.308 1.943 4.388 3.589 5.051 3.977l.8.503 3.406-1.577C25.21 8.18 38.468 5.05 54.72 3.884c5.211-.389 17.53-.457 22.81-.137z"/>
</svg>
